<svg width="64" height="64" viewBox="0 0 64 64" fill="none" xmlns="http://www.w3.org/2000/svg">
  <circle cx="32" cy="32" r="30" fill="#FFF3E0"/>
  <path d="M32 10C20.4 10 11 19.4 11 31C11 42.6 20.4 52 32 52C43.6 52 53 42.6 53 31C53 19.4 43.6 10 32 10Z" fill="#FFE0B2"/>
  <path d="M24 28C25.7 28 27 26.7 27 25C27 23.3 25.7 22 24 22C22.3 22 21 23.3 21 25C21 26.7 22.3 28 24 28Z" fill="#3E2723"/>
  <path d="M40 28C41.7 28 43 26.7 43 25C43 23.3 41.7 22 40 22C38.3 22 37 23.3 37 25C37 26.7 38.3 28 40 28Z" fill="#3E2723"/>
  <path d="M32 38C34.2 38 36 36.2 36 34C36 31.8 34.2 30 32 30C29.8 30 28 31.8 28 34C28 36.2 29.8 38 32 38Z" fill="#D81B60"/>
  <path d="M20 14C20 14 24 12 32 12C40 12 44 14 44 14L42 20C42 20 38 18 32 18C26 18 22 20 22 20L20 14Z" fill="#FFD700"/>
  <path d="M20 14L22 20C22 20 24 19 28 18.5C30 18.2 32 18 32 18C32 18 34 18.2 36 18.5C40 19 42 20 42 20L44 14C44 14 40 12.5 36 12C32 11.5 28 12 24 12.5C22 12.7 20 14 20 14Z" fill="#FFC107"/>
  <path d="M28 10L30 14H34L30 16L32 20L28 17L24 20L26 16L22 14H26L28 10Z" fill="#9FD456"/>
</svg>